<svg id="Capa_1" data-name="Capa 1" xmlns="http://www.w3.org/2000/svg" xmlns:xlink="http://www.w3.org/1999/xlink" viewBox="0 0 1920 1080"><defs><style>.cls-1,.cls-10{fill:none;}.cls-2{fill:#2f529f;}.cls-3{fill:#7cc7c4;}.cls-4{fill:#f18b48;}.cls-5{fill:#e9528f;}.cls-6{clip-path:url(#clip-path);}.cls-7{fill:#010000;}.cls-8{clip-path:url(#clip-path-2);}.cls-9{clip-path:url(#clip-path-3);}.cls-10{stroke:#472563;stroke-miterlimit:10;stroke-width:3.49px;}.cls-11{fill:#d85b81;}.cls-12{clip-path:url(#clip-path-4);}</style><clipPath id="clip-path"><rect class="cls-1" x="109" y="81" width="1071.33" height="668"/></clipPath><clipPath id="clip-path-2"><rect class="cls-1" x="586" y="535.76" width="1102" height="499.24"/></clipPath><clipPath id="clip-path-3"><rect class="cls-1" x="1774" y="125" width="146.19" height="234"/></clipPath><clipPath id="clip-path-4"><rect class="cls-1" x="836.77" y="18" width="428.83" height="1030"/></clipPath></defs><title>fondo-triangulos</title><polygon class="cls-2" points="725.8 635.84 742.72 645.61 742.72 626.08 725.8 635.84"/><polygon class="cls-3" points="248.07 739.24 264.99 749 264.99 729.47 248.07 739.24"/><polygon class="cls-4" points="207.06 320.92 223.97 330.69 223.97 311.16 207.06 320.92"/><polygon class="cls-3" points="109 115.28 125.91 125.05 125.91 105.52 109 115.28"/><polygon class="cls-5" points="503.16 81 486.25 90.76 503.16 100.53 503.16 81"/><g class="cls-6"><path class="cls-7" d="M171,562.35c0,5.51,8.57,5.52,8.57,0s-8.57-5.52-8.57,0"/><path class="cls-5" d="M350,435.47c0,5.51,8.57,5.52,8.57,0s-8.57-5.52-8.57,0"/><path class="cls-5" d="M187.08,175.46c0,5.51,8.57,5.52,8.57,0s-8.57-5.52-8.57,0"/><path class="cls-7" d="M1171.77,276.36c0,5.51,8.57,5.52,8.57,0s-8.57-5.52-8.57,0"/></g><polygon class="cls-2" points="586 740.02 611.62 725.24 586 710.45 586 740.02"/><polygon class="cls-3" points="1631.07 535.75 1631.07 601.5 1688 568.63 1631.07 535.75"/><g class="cls-8"><path class="cls-7" d="M1572.28,780.78c0-8.35-13-8.36-13,0s13,8.36,13,0"/><path class="cls-5" d="M702.16,1028.73c0-8.35-13-8.36-13,0s13,8.36,13,0"/></g><g class="cls-9"><path class="cls-10" d="M1920.19,126.74a115.26,115.26,0,1,0,0,230.51"/><path class="cls-11" d="M1818.64,197.36A44.64,44.64,0,1,0,1863.28,242a44.64,44.64,0,0,0-44.64-44.64"/></g><polygon class="cls-2" points="870.19 37.3 836.77 18 836.77 56.59 870.19 37.3"/><polygon class="cls-3" points="1265.61 439.54 1232.19 420.24 1232.19 458.83 1265.61 439.54"/><g class="cls-12"><path class="cls-7" d="M1163.35,716.32c0-10.89-16.93-10.91-16.93,0s16.93,10.91,16.93,0"/><path class="cls-5" d="M1064.16,1039.82c0-10.89-16.93-10.91-16.93,0s16.93,10.91,16.93,0"/></g></svg>