<svg xmlns="http://www.w3.org/2000/svg" viewBox="0 0 180.63 41.74"><defs><style>.cls-1{fill:#fff;}</style></defs><title>logo-chicandbath-blanco</title><g id="Capa_2" data-name="Capa 2"><g id="Capa_1-2" data-name="Capa 1"><path class="cls-1" d="M86.79,22.6a2,2,0,0,0,2.09,2,3.62,3.62,0,0,0,2.63-1.27l-2.82-3.13C87.74,20.79,86.79,21.47,86.79,22.6Z"/><path class="cls-1" d="M90.07,0a20.87,20.87,0,1,0,20.87,20.87A20.87,20.87,0,0,0,90.07,0Zm4.68,26.43c-.7,0-1.25-.76-1.93-1.61A5.47,5.47,0,0,1,89,26.45c-2.5,0-4.21-1.59-4.21-3.69,0-1.93,1.36-3.13,2.69-3.94a4.57,4.57,0,0,1-1.4-3,3.23,3.23,0,0,1,3.49-3.07c1.88,0,3.37,1.31,3.37,2.58,0,.61-.68.93-1.06.93-1.1,0-.74-1.59-2.12-1.59-.59,0-1.63.55-1.63,1.19s.7,1.48,1.33,2.18l3.35,3.7c.59-1,1-2.39,1.74-2.39a1.07,1.07,0,0,1,1.08,1,7.06,7.06,0,0,1-1.46,3l1.33,1.55a.85.85,0,0,1,.25.61A1,1,0,0,1,94.75,26.43Z"/><path class="cls-1" d="M0,17.85c0-4.2,2-7,6.47-7,2.62,0,5.09,1.06,5.09,2.35a1,1,0,0,1-1,1c-.4,0-.58-.19-1-.46a4.93,4.93,0,0,0-2.88-.85c-3.25,0-4.31,1.91-4.31,5v5.84c0,3.06,1.06,5,4.31,5a4.93,4.93,0,0,0,2.88-.85c.49-.27.63-.46,1-.46a1,1,0,0,1,1,1c0,1.28-2.47,2.35-5.09,2.35C2,30.64,0,27.89,0,23.68Z"/><path class="cls-1" d="M37.49,12a1.09,1.09,0,0,1,2.18,0v17.6a1.09,1.09,0,0,1-2.18,0Z"/><path class="cls-1" d="M47.07,17.85c0-4.2,2-7,6.47-7,2.62,0,5.09,1.06,5.09,2.35a1,1,0,0,1-1,1c-.4,0-.58-.19-1-.46a4.93,4.93,0,0,0-2.88-.85c-3.25,0-4.31,1.91-4.31,5v5.84c0,3.06,1.06,5,4.31,5a4.93,4.93,0,0,0,2.88-.85c.49-.27.63-.46,1-.46a1,1,0,0,1,1,1c0,1.28-2.47,2.35-5.09,2.35-4.43,0-6.47-2.76-6.47-7Z"/><path class="cls-1" d="M29.11,10.89A1.13,1.13,0,0,0,28,12v6.1l-7.45,3.5V12a1.09,1.09,0,1,0-2.18,0V29.55a1.09,1.09,0,1,0,2.18,0V24L28,20.47v9.08a1.14,1.14,0,0,0,1.09,1.12,1.12,1.12,0,0,0,1.09-1.12V12a1.13,1.13,0,0,0-1.09-1.09"/><path class="cls-1" d="M124.17,21.34v6.79h3.33c2.73,0,4.07-1.34,4.07-3.3,0-2.26-1.77-3.49-4.17-3.49Zm3.14-2.13c1.77,0,3.74-1,3.74-3.25,0-1.45-.82-2.81-3.27-2.81h-3.6v6.06Zm-4,11A1.31,1.31,0,0,1,122,28.95V12.33A1.31,1.31,0,0,1,123.3,11h4.61c3.55,0,5.32,2.43,5.32,5,0,2.35-1.5,3.52-3.52,4.36,1.83.57,4,1.39,4,4.45s-2.26,5.46-5.95,5.46Z"/><path class="cls-1" d="M150.94,29,145.62,12.2c-.27-.85-.63-1.45-1.45-1.45s-1.17.63-1.42,1.45L137.44,29a1.83,1.83,0,0,0-.05.41,1.09,1.09,0,0,0,1.15,1.09,1.21,1.21,0,0,0,1-.82l1.15-3.79.66-2.13,2.81-9.25L147,23.79l.63,2.13,1.17,3.79a1.18,1.18,0,0,0,1.06.82A1.07,1.07,0,0,0,151,29.44a1.89,1.89,0,0,0-.05-.41"/><path class="cls-1" d="M157.19,13.15h-3.71a1.07,1.07,0,0,1-1.09-1.06A1.17,1.17,0,0,1,153.48,11h9.6a1.07,1.07,0,1,1,0,2.13h-3.71V29.44a1.09,1.09,0,0,1-2.18,0Z"/><path class="cls-1" d="M179.54,10.75a1.13,1.13,0,0,0-1.09,1.09v5.77L171,21.11V11.84a1.09,1.09,0,1,0-2.18,0V29.41a1.09,1.09,0,1,0,2.18,0v-5.9l7.45-3.5v9.4a1.14,1.14,0,0,0,1.09,1.12,1.12,1.12,0,0,0,1.09-1.12V11.84a1.13,1.13,0,0,0-1.09-1.09"/></g></g></svg>