<svg xmlns="http://www.w3.org/2000/svg" viewBox="0 0 15.16 17.01"><defs><style>.cls-1{fill:#e1936b;}</style></defs><g id="Capa_2" data-name="Capa 2"><g id="Capa_1-2" data-name="Capa 1"><path class="cls-1" d="M8.48,8.78c2,.76,4.09.39,5.55,1.24a2.15,2.15,0,0,1,1.13,1.81,2,2,0,0,1-.29,1,1.83,1.83,0,0,1-1.64,1A2.4,2.4,0,0,1,12,13.43c-1.49-.9-2.1-2.88-3.71-4.28Zm-.21-1C9.88,6.42,10.49,4.44,12,3.54a2.5,2.5,0,0,1,1.23-.35,1.9,1.9,0,0,1,1.66.93,2,2,0,0,1,.29,1A2.18,2.18,0,0,1,14,7c-1.5.89-3.54.48-5.53,1.24ZM7.8,9.44c.37,2.1,1.77,3.66,1.77,5.39a2,2,0,1,1-4,0c0-1.73,1.4-3.29,1.77-5.39ZM7.37,7.57C7,5.47,5.6,3.91,5.6,2.18a2,2,0,1,1,4,0c0,1.73-1.4,3.29-1.77,5.39ZM6.89,9.15c-1.62,1.4-2.22,3.38-3.72,4.28A2.5,2.5,0,0,1,2,13.78a1.87,1.87,0,0,1-1.66-.94,2,2,0,0,1-.29-1A2.18,2.18,0,0,1,1.15,10c1.49-.89,3.54-.48,5.52-1.24Zm-.22-.94c-2-.76-4.08-.39-5.54-1.24A2.15,2.15,0,0,1,0,5.16a2,2,0,0,1,.29-1,1.82,1.82,0,0,1,1.64-1,2.4,2.4,0,0,1,1.24.37c1.5.9,2.1,2.88,3.72,4.28Z"/></g></g></svg>