<svg xmlns="http://www.w3.org/2000/svg" viewBox="0 0 304.45 221.95"><defs><style>.cls-1{fill:#e1936b;}.cls-2{fill:#3c3c3b;}</style></defs><g id="Capa_2" data-name="Capa 2"><g id="Capa_1-2" data-name="Capa 1"><path class="cls-1" d="M105.91,135c-10-12.6-16.52-28.3-1.46-41.1a99.33,99.33,0,0,0,5.62,8.46c9.61,13,31.32,41.36,31.32,41.36l1.22,1.63c-13.36,11.12-26.36,2.68-36.7-10.35M156,8.39h0c9.06,0,16.39,8.34,16.39,18.58,0,17.1-9.08,23.17-17.81,28.93C149.15,48.65,144.12,42,140.24,37,134.66,29.7,129.06,8.39,156,8.39m69.41,51.24c-24.41,0-38.62,14.8-47.37,27.52C172.36,79.5,166,71,159.86,62.85a247,247,0,0,0,22.29-14.06c14.08-10,15.53-27.54,7.32-37s-20.93-12-34-11.82c-35.22,0-54,25.17-59,48.28a59.53,59.53,0,0,0,3.82,37.46C69.93,102.24,49.7,116.62,49.7,139.59,49.7,164.68,69.18,185,94.27,185c21.33,0,41.44-12.27,52.54-30.21.35-.58.71-1.16,1.07-1.73,19.41,30.63,11.29,49,.69,56.75-10,7.29-28,2.32-37.17-.25a3.6,3.6,0,0,0-2.18,6.85c12.07,4.35,36.5,12.52,64-6.53,32.23-22.32,45.52-68.21,16.82-106.72l-5.92-7.94c1.6-2.36,3-4.26,4-5.61,5.09-6.52,9.39-14.14,20.47-16.63a24.21,24.21,0,0,0-10.22,19.49c0,16.24,12.11,24.91,27.06,24.91,16.18,0,29.29-12.36,29.29-27.6,0-17.28-13.11-30.17-29.29-30.17"/><polygon class="cls-2" points="293.86 114.31 293.86 136 269.82 136 269.82 114.31 259.23 114.31 259.23 168.07 269.82 168.07 269.82 146.23 293.86 146.23 293.86 168.07 304.45 168.07 304.45 114.31 293.86 114.31"/><polygon class="cls-2" points="172.42 124.54 184.98 124.54 184.98 168.07 195.58 168.07 195.58 124.54 208.65 124.54 208.65 114.31 172.42 114.31 172.42 124.54"/><path class="cls-2" d="M101.73,148.64l5.46-13.11,5.17,13.11ZM120,168.07h12.27L108,112.19h-.58L83.2,168.07H93.64L98,157.55h17.85Z"/><path class="cls-2" d="M26.77,156.79a11.46,11.46,0,0,1-5.92,1.42H14.06V146.52h6.06a19.33,19.33,0,0,1,4.35.48,7.32,7.32,0,0,1,3.4,1.68,4.57,4.57,0,0,1,1.31,3.54,4.9,4.9,0,0,1-2.41,4.57M14.06,124.54h5.7a8.21,8.21,0,0,1,5,1.38,4.86,4.86,0,0,1,1.87,4.17,6.77,6.77,0,0,1-1.5,4.31,5.57,5.57,0,0,1-4.64,1.9H14.06Zm23.08,19.54a17.82,17.82,0,0,0-6-4.34,13.93,13.93,0,0,0,4-3.63,13.58,13.58,0,0,0,2.44-8.29q0-6.72-5-10.11t-13.37-3.4H3.47v53.76h17.9a28.55,28.55,0,0,0,6.94-.84,18.09,18.09,0,0,0,6-2.7,13.34,13.34,0,0,0,4.24-4.89,16,16,0,0,0,1.57-7.42,11.87,11.87,0,0,0-3-8.14"/><path class="cls-2" d="M299.26,66.46a16.81,16.81,0,0,1-4.67,2.93,17.94,17.94,0,0,1-7.38,1.38,16.33,16.33,0,0,1-8.55-2.19,14.61,14.61,0,0,1-5.62-6.1,19.82,19.82,0,0,1-2-9.09,17.49,17.49,0,0,1,2.15-8.73,17,17,0,0,1,5.7-6.1,13.88,13.88,0,0,1,7.63-2.26,15.68,15.68,0,0,1,7,1.49,30.35,30.35,0,0,1,4.86,2.89l4.16-10a32.92,32.92,0,0,0-6.79-3.14,29,29,0,0,0-9.57-1.46,27.13,27.13,0,0,0-10.67,2,24,24,0,0,0-8.29,5.78,25.74,25.74,0,0,0-5.33,8.83A32.7,32.7,0,0,0,260,54a28.73,28.73,0,0,0,1.82,10.3,25.71,25.71,0,0,0,5.3,8.55,24.94,24.94,0,0,0,8.47,5.88A30.25,30.25,0,0,0,287,81a26.4,26.4,0,0,0,7.6-.88,29.19,29.19,0,0,0,5.8-2.19,19.81,19.81,0,0,0,3.26-2Z"/><rect class="cls-2" x="185.24" y="26.65" width="10.59" height="53.76"/><polygon class="cls-2" points="119.76 26.65 119.76 48.35 95.72 48.35 95.72 26.65 85.13 26.65 85.13 80.42 95.72 80.42 95.72 58.58 119.76 58.58 119.76 80.42 130.35 80.42 130.35 26.65 119.76 26.65"/><path class="cls-2" d="M39.23,66.46a16.88,16.88,0,0,1-4.68,2.93,17.87,17.87,0,0,1-7.38,1.38,16.27,16.27,0,0,1-8.54-2.19A14.63,14.63,0,0,1,13,62.48a20,20,0,0,1-2-9.09,17.6,17.6,0,0,1,2.15-8.73,17,17,0,0,1,5.7-6.1,13.92,13.92,0,0,1,7.64-2.26,15.64,15.64,0,0,1,7,1.49,30.35,30.35,0,0,1,4.86,2.89l4.16-10a32.67,32.67,0,0,0-6.79-3.14,29,29,0,0,0-9.57-1.46,27,27,0,0,0-10.66,2,24.06,24.06,0,0,0-8.3,5.78,25.74,25.74,0,0,0-5.33,8.83A32.7,32.7,0,0,0,0,54a28.73,28.73,0,0,0,1.83,10.3,25.68,25.68,0,0,0,5.29,8.55A24.88,24.88,0,0,0,15.6,78.7,30.19,30.19,0,0,0,27,81a26.4,26.4,0,0,0,7.6-.88,29.3,29.3,0,0,0,5.81-2.19,20.05,20.05,0,0,0,3.25-2Z"/></g></g></svg>